# xmcd
#
# Track frame offsets:
# 150
# 12482
# 24116
# 34775
# 45821
# 55303
# 65197
# 76437
# 87044
# 96533
# 108680
# 120600
# 132311
# 143954
# 156760
# 166969
# 178048
# 186968
# 198101
# 210302
# 220433
# 231929
# 243807
# 255304
#
# Disc length: 3565 seconds
#
#
# Revision: 0
# Processed by: cddbd v1.4PL0 Copyright (c) Steve Scherf et al.
# Submitted via: FreeRIP 2.51 
#
DISCID=4a0deb18
DTITLE=connie smith - connie smith miss smith gos to nashville
DYEAR=1900
DGENRE=country
TTITLE0=the other side of you
TTITLE1=tiny blue transistor radio
TTITLE2=once a day
TTITLE3=the hinges on the door
TTITLE4=dont forget i still love you
TTITLE5=darling are you ever comeing home
TTITLE6=then and only then
TTITLE7=the threshold
TTITLE8=its just my luck
TTITLE9=i'm ashamed of you
TTITLE10=i dont love you any more
TTITLE11=tell another lie
TTITLE12=in my babys arms again
TTITLE13=go ahead and make me cry
TTITLE14=same as mine
TTITLE15=if i talk to him
TTITLE16=aint nothen shakeing
TTITLE17=i dont have any place to go
TTITLE18=i'll never get over loveing you
TTITLE19=holding on
TTITLE20=nobody but a fool
TTITLE21=for better and for worse
TTITLE22=will the real me please stop crying
TTITLE23=if you wont tell me
EXTD=2 oringinal albums
EXTT0=
EXTT1=
EXTT2=
EXTT3=
EXTT4=
EXTT5=
EXTT6=
EXTT7=
EXTT8=
EXTT9=
EXTT10=
EXTT11=
EXTT12=
EXTT13=
EXTT14=
EXTT15=
EXTT16=
EXTT17=
EXTT18=
EXTT19=
EXTT20=
EXTT21=
EXTT22=
EXTT23=
PLAYORDER=
